<svg version="1.1" xmlns="http://www.w3.org/2000/svg" xmlns:xlink="http://www.w3.org/1999/xlink" width="50.15523" height="41.70857" viewBox="0,0,50.15523,41.70857"><g transform="translate(-295.62322,-158.59305)"><g data-paper-data="{&quot;isPaintingLayer&quot;:true}" fill-rule="nonzero" stroke-linejoin="miter" stroke-miterlimit="10" stroke-dasharray="" stroke-dashoffset="0" style="mix-blend-mode: normal"><path d="M332.21101,166.24267c0.23578,-0.04899 10.6093,3.13329 11.77123,8.72523c1.2289,5.91429 1.73186,11.19427 -2.59402,12.09313c-4.32588,0.89886 -8.82892,-3.16696 -10.05783,-9.08125c-1.2289,-5.91429 -3.44527,-10.83825 0.88062,-11.73711z" data-paper-data="{&quot;index&quot;:null}" fill="#765c3d" stroke="none" stroke-width="0" stroke-linecap="butt"/><path d="M340.54858,180.32438c0,10.67751 -8.73045,19.33333 -19.5,19.33333c-10.76955,0 -19.5,-8.65583 -19.5,-19.33333c0,-10.67751 8.73045,-19.33333 19.5,-19.33333c10.76955,0 19.5,8.65583 19.5,19.33333z" fill="#6f522e" stroke="none" stroke-width="0" stroke-linecap="butt"/><path d="M325.75962,172.98389c0,1.72589 -1.42709,3.125 -3.1875,3.125c-1.76041,0 -3.1875,-1.39911 -3.1875,-3.125c0,-1.72589 1.42709,-3.125 3.1875,-3.125c1.76041,0 3.1875,1.39911 3.1875,3.125z" fill="#232323" stroke="none" stroke-width="0" stroke-linecap="butt"/><path d="M335.38672,172.98597c0,1.72589 -1.42709,3.125 -3.1875,3.125c-1.76041,0 -3.1875,-1.39911 -3.1875,-3.125c0,-1.72589 1.42709,-3.125 3.1875,-3.125c1.76041,0 3.1875,1.39911 3.1875,3.125z" fill="#232323" stroke="none" stroke-width="0" stroke-linecap="butt"/><path d="M308.90546,178.91333c-0.82196,5.98443 -5.03671,10.34839 -9.41389,9.74718c-4.37718,-0.60121 -4.23613,-5.90322 -3.41417,-11.88765c0.77716,-5.65826 10.90904,-9.54183 11.14761,-9.50906c4.37718,0.60121 2.50241,5.66509 1.68045,11.64952z" fill="#765c3d" stroke="none" stroke-width="0" stroke-linecap="butt"/><g><path d="M336.47988,186.75097c0,4.4643 -5.42732,9.25 -11.91667,9.25c-6.48935,0 -11.91667,-4.7857 -11.91667,-9.25c0,-2.41071 1.29786,-4.57494 3.82038,-6.05594c2.14884,-1.2616 5.27783,-2.0274 8.26295,-2.0274c3.29698,0 7.94347,0.60083 10.07738,2.1054c2.06619,1.45683 1.67262,3.78177 1.67262,5.97793z" fill="#765c3d" stroke="none" stroke-width="0" stroke-linecap="butt"/><g fill="#232323" stroke="#232323"><path d="M332.81322,181.50097c0,1.10457 -1.1566,2 -2.58333,2c-1.42674,0 -2.58333,-0.89543 -2.58333,-2c0,-1.10457 1.1566,-2 2.58333,-2c1.42674,0 2.58333,0.89543 2.58333,2z" stroke-width="0" stroke-linecap="butt"/><g stroke-width="1.5" stroke-linecap="round"><path d="M330.25483,182.8195l0.02494,2.35689l-2.0576,1.5775"/><path d="M330.42317,185.36345l1.33432,1.35303"/></g></g></g><path d="M306.61902,166.83267c0,0 4.25551,-6.37116 14.62275,-6.48974c6.8177,-0.07798 14.42079,7.07379 14.42079,7.07379c0,0 2.15597,0.19177 4.28256,1.809c1.92879,1.4668 3.8334,4.28359 4.08333,5.87863c0.20984,1.33923 1.06458,7.41142 -0.04591,9.65676c-1.10234,2.22886 -3.31592,2.45526 -4.48128,2.40473c-0.2429,-0.01053 -5.56285,11.96047 -20.1367,11.36422c-10.09749,-0.41311 -16.74123,-10.14999 -16.74123,-10.14999c0,0 -4.02657,1.05235 -6.21841,-1.3304c-1.60381,-1.7435 -1.22919,-4.8184 -1.17399,-7.29447c0.03093,-1.38771 -0.16991,-5.64328 3.5224,-8.8267c1.53235,-1.32115 7.8657,-4.09582 7.8657,-4.09582" fill="none" stroke="#000000" stroke-width="3.5" stroke-linecap="round"/></g></g></svg>